<svg width="512" height="512" viewBox="0 0 512 512" xmlns="http://www.w3.org/2000/svg">
  <!-- Dark Fetti background -->
  <rect width="512" height="512" rx="120" fill="#020617"/>

  <!-- Laurel circle -->
  <circle cx="256" cy="256" r="185" fill="none" stroke="#22c55e" stroke-width="18"/>

  <!-- Hex shield -->
  <path
    d="M256 122 L348 176 L348 288 L256 342 L164 288 L164 176 Z"
    fill="#16a34a"
  />

  <!-- Gold S (simplified) -->
  <path
    d="M224 196h64c18 0 32 14 32 32 0 16-12 28-28 31l-40 7c-6 1-10 5-10 11 0 6 5 11 11 11h51v30h-64c-23 0-41-18-41-41 0-20 14-37 34-40l40-7c6-1 10-6 10-12 0-7-5-12-12-12h-47v-30z"
    fill="#facc15"
  />

  <!-- FETTI initials ghosted at top (small, subtle) -->
  <text x="256" y="110" text-anchor="middle"
        font-family="system-ui, -apple-system, BlinkMacSystemFont, 'Segoe UI', sans-serif"
        font-size="42" fill="#22c55e" opacity="0.9">
    F
  </text>
</svg>
